# xmcd CD database file
#
# Track frame offsets:
#	150
#	19332
#	37985
#	53185
#	64110
#	80475
#	92757
#	110940
#	122440
#	137660
#	156385
#	171215
#	180777
#	195012
#	219315
#
# Disc length: 3109 seconds
#
# Revision: 1
# Processed by: cddbd v1.5.1PL0 Copyright (c) Steve Scherf et al.
# Submitted via: CDex 1.51
#
DISCID=c20c230f
DTITLE=Buena Vista Social Club - Buena Vista Social Club Best
DYEAR=1900
DGENRE=Jazz
TTITLE0=Eliades Ochoa - Chan Chan
TTITLE1=Eliades Ochoa - El Cuarto De Tula 
TTITLE2=Omara Portuondo - Veinte Anos 
TTITLE3=Omara Portuondo - Quizas, Quizas, Quizas
TTITLE4=Compay Segundo - Juramento
TTITLE5=Compay Segundo - Guananey
TTITLE6=Omara Portuondo - La Ultima Noche
TTITLE7=Ibrahim Ferrer - Monte Adentro
TTITLE8=Ruben Gonzalez - Sentimiento
TTITLE9=Compay Segundo - Pena
TTITLE10=Ibrahim Ferrer - Rossana
TTITLE11=Omara Portuondo - Reclamo Mistico
TTITLE12=Compay Segundo - Ahora Me Da Pena
TTITLE13=Ibrahim Ferrer - Todavia me Queda Vo
TTITLE14=Ruben Gonzalez - Soplete
EXTD=
EXTT0=
EXTT1=
EXTT2=
EXTT3=
EXTT4=
EXTT5=
EXTT6=
EXTT7=
EXTT8=
EXTT9=
EXTT10=
EXTT11=
EXTT12=
EXTT13=
EXTT14=
PLAYORDER=
